{
    "asset" : {
        "generator" : "Khronos glTF Blender I/O v1.0.5",
        "version" : "2.0"
    },
    "scene" : 0,
    "scenes" : [
        {
            "name" : "Scene",
            "nodes" : [
                0,
                1
            ]
        }
    ],
    "nodes" : [
        {
            "mesh" : 0,
            "name" : "Icosphere",
            "translation" : [
                0,
                0,
                0
            ],
            "scale": [
                0.4,
                0.4,
                0.4
            ]
        }
    ],
    "materials" : [
        {
            "doubleSided" : true,
            "name" : "Base",
            "pbrMetallicRoughness" : {
                "baseColorFactor" : [
                    0.12738479673862457,
                    0.45001640915870667,
                    0.8000000715255737,
                    1
                ],
                "metallicFactor" : 0.3,
                "roughnessFactor" : 0.2
            },
            "emissiveFactor" : [
                0.001,
                0.01,
                0.1
            ]

        },
        {
            "doubleSided" : true,
            "emissiveFactor" : [
                0.01,
                0.1,
                0.001
            ],
            "name" : "Green",
            "pbrMetallicRoughness" : {
                "baseColorFactor" : [
                    0.08466698974370956,
                    1,
                    0.00828488077968359,
                    1
                ],
                "metallicFactor" : 0,
                "roughnessFactor" : 0.3
            }
        }
    ],
    "meshes" : [
        {
            "name" : "Icosphere",
            "primitives" : [
                {
                    "attributes" : {
                        "POSITION" : 0,
                        "NORMAL" : 1,
                        "TEXCOORD_0" : 2
                    },
                    "indices" : 3,
                    "material" : 0
                },
                {
                    "attributes" : {
                        "POSITION" : 4,
                        "NORMAL" : 5,
                        "TEXCOORD_0" : 6
                    },
                    "indices" : 7,
                    "material" : 1
                }
            ]
        }
    ],
    "accessors" : [
        {
            "bufferView" : 0,
            "componentType" : 5126,
            "count" : 33,
            "max" : [
                2.9516024589538574,
                3.3000001907348633,
                2.807111978530884
            ],
            "min" : [
                -2.9516024589538574,
                -3.3000001907348633,
                -2.807111978530884
            ],
            "type" : "VEC3"
        },
        {
            "bufferView" : 1,
            "componentType" : 5126,
            "count" : 33,
            "type" : "VEC3"
        },
        {
            "bufferView" : 2,
            "componentType" : 5126,
            "count" : 33,
            "type" : "VEC2"
        },
        {
            "bufferView" : 3,
            "componentType" : 5123,
            "count" : 33,
            "type" : "SCALAR"
        },
        {
            "bufferView" : 4,
            "componentType" : 5126,
            "count" : 27,
            "max" : [
                2.3878800868988037,
                3.3000001907348633,
                2.807111978530884
            ],
            "min" : [
                -2.9516024589538574,
                -3.3000001907348633,
                -2.807111978530884
            ],
            "type" : "VEC3"
        },
        {
            "bufferView" : 5,
            "componentType" : 5126,
            "count" : 27,
            "type" : "VEC3"
        },
        {
            "bufferView" : 6,
            "componentType" : 5126,
            "count" : 27,
            "type" : "VEC2"
        },
        {
            "bufferView" : 7,
            "componentType" : 5123,
            "count" : 27,
            "type" : "SCALAR"
        }
    ],
    "bufferViews" : [
        {
            "buffer" : 0,
            "byteLength" : 396,
            "byteOffset" : 0
        },
        {
            "buffer" : 0,
            "byteLength" : 396,
            "byteOffset" : 396
        },
        {
            "buffer" : 0,
            "byteLength" : 264,
            "byteOffset" : 792
        },
        {
            "buffer" : 0,
            "byteLength" : 66,
            "byteOffset" : 1056
        },
        {
            "buffer" : 0,
            "byteLength" : 324,
            "byteOffset" : 1124
        },
        {
            "buffer" : 0,
            "byteLength" : 324,
            "byteOffset" : 1448
        },
        {
            "buffer" : 0,
            "byteLength" : 216,
            "byteOffset" : 1772
        },
        {
            "buffer" : 0,
            "byteLength" : 54,
            "byteOffset" : 1988
        }
    ],
    "buffers" : [
        {
            "byteLength" : 2044,
            "uri" : "MakeGL.bin"
        }
    ]
}
